<svg version="1.1" viewBox="0.0 0.0 638.0 460.0" fill="none" stroke="none" stroke-linecap="square" stroke-miterlimit="10" width="638" height="460" xmlns:xlink="http://www.w3.org/1999/xlink" xmlns="http://www.w3.org/2000/svg"><path fill="#ffffff" fill-opacity="0.0" d="M0 0L638.0 0L638.0 460.0L0 460.0L0 0Z" fill-rule="nonzero"/><path fill="#483775" d="M319.0 142.025C361.26202 142.025 399.27884 160.01141 415.03653 187.46155L415.03653 218.51155C399.27884 191.06142 361.26202 173.075 319.0 173.075Z" fill-rule="nonzero"/><path fill="#674ea7" d="M319.0 69.575C403.52405 69.575 479.55768 105.54784 511.07303 160.44809L415.03653 187.46155C399.27884 160.01141 361.26202 142.025 319.0 142.025Z" fill-rule="nonzero"/><path fill="#989898" d="M526.0 245.525C526.0 278.65247 509.78387 310.77972 480.0534 336.55408L480.0534 305.5041C509.78387 279.72974 526.0 247.60246 526.0 214.475Z" fill-rule="nonzero"/><path fill="#989898" d="M415.03653 187.46155C419.9665 196.04965 422.5 205.21947 422.5 214.475L422.5 245.525C422.5 236.26947 419.9665 227.09966 415.03653 218.51155Z" fill-rule="nonzero"/><path fill="#d9d9d9" d="M511.07303 160.44809C539.03784 209.16325 527.17084 264.65637 480.0534 305.5041L399.5267 259.98953C423.08542 239.56569 429.01892 211.81912 415.03653 187.46155Z" fill-rule="nonzero"/><path fill="#a98823" d="M241.30542 166.60912C260.9547 150.98096 289.25873 142.025 319.0 142.025L319.0 173.075C289.25873 173.075 260.9547 182.03094 241.30542 197.65912Z" fill-rule="nonzero"/><path fill="#f1c232" d="M163.61084 118.74323C202.90945 87.4869 259.51746 69.575 319.0 69.575L319.0 142.025C289.25873 142.025 260.9547 150.98096 241.30542 166.60912Z" fill-rule="nonzero"/><path fill="#4a7637" d="M113.67661 263.92987C112.560005 257.82608 112.0 251.67867 112.0 245.525L112.0 214.475C112.0 220.62866 112.560005 226.77606 113.67661 232.87988Z" fill-rule="nonzero"/><path fill="#4a7637" d="M215.5 214.475C215.5 196.8539 224.67424 179.83679 241.30542 166.60912L241.30542 197.65912C224.67424 210.8868 215.5 227.9039 215.5 245.525Z" fill-rule="nonzero"/><path fill="#6aa84f" d="M113.67661 232.87988C106.12127 191.57935 124.31222 149.99956 163.61084 118.74323L241.30542 166.60912C221.65611 182.23729 212.56064 203.02718 216.3383 223.67744Z" fill-rule="nonzero"/><path fill="#8f0000" d="M480.0534 336.55408C427.9585 381.7169 342.3877 400.7586 262.6004 384.94293C182.81313 369.1273 124.20951 321.50696 113.67661 263.92987L113.67661 232.87988C124.20951 290.45694 182.81313 338.0773 262.6004 353.89294C342.3877 369.7086 427.9585 350.6669 480.0534 305.5041Z" fill-rule="nonzero"/><path fill="#cc0000" d="M480.0534 305.5041C427.9585 350.6669 342.3877 369.7086 262.6004 353.89294C182.81313 338.0773 124.20951 290.45694 113.67661 232.87988L216.3383 223.67744C221.60475 252.46597 250.90656 276.27615 290.8002 284.18396C330.69385 292.0918 373.47925 282.57095 399.5267 259.98953Z" fill-rule="nonzero"/></svg>