<svg version="1.1" viewBox="0.0 0.0 600.0 371.0" fill="none" stroke="none" stroke-linecap="square" stroke-miterlimit="10" width="600" height="371" xmlns:xlink="http://www.w3.org/1999/xlink" xmlns="http://www.w3.org/2000/svg"><path fill="#ffffff" fill-opacity="0.0" d="M0 0L600.0 0L600.0 371.0L0 371.0L0 0Z" fill-rule="nonzero"/><path fill="#cc0000" d="M301.3581 15.499672C348.6732 15.499672 393.76614 35.57635 425.42612 70.73832L332.3751 154.52184C324.4601 145.73134 313.18686 140.71217 301.3581 140.71217Z" fill-rule="nonzero"/><path fill="#666666" d="M427.2436 72.756836C458.9036 107.9188 474.15677 154.86333 469.211 201.91922L344.68445 188.83095C345.92087 177.06697 342.10757 165.33084 334.1926 156.54036Z" fill-rule="nonzero"/><path fill="#666666" d="M174.57388 70.73832C206.23386 35.57635 251.32681 15.499672 298.6419 15.499672L298.6419 140.71217C286.81314 140.71217 275.5399 145.73134 267.6249 154.52184Z" fill-rule="nonzero"/><path fill="#f1c232" d="M130.78899 201.91922C125.843216 154.86333 141.09642 107.9188 172.7564 72.756836L265.8074 156.54036C257.89243 165.33084 254.07912 177.06697 255.31557 188.83095Z" fill-rule="nonzero"/><path fill="#666666" d="M198.9776 322.2349C160.69888 294.42377 136.01869 251.67642 131.0729 204.62053L255.59949 191.53226C256.83594 203.29623 263.00598 213.98306 272.57565 220.93585Z" fill-rule="nonzero"/><path fill="#674ea7" d="M467.39352 206.00136C461.15887 265.3201 423.75165 316.80673 369.2628 341.06674C314.7739 365.32675 251.48157 358.67447 203.22734 323.61572L276.8254 222.31668C288.88895 231.08136 304.71204 232.74443 318.33426 226.67943C331.95648 220.61443 341.3083 207.74277 342.86694 192.91309Z" fill-rule="nonzero"/></svg>